:SAMPLES-PER-SECOND 30
:FULLY-SPECIFIED
:DEGREES
225
root  -18.3955 38.9606 10.6053 -177.96 37.7605 179.856
RightUpLeg  -14.3484 -9.57801 -9.49189
RightLeg  22.5607 -13.6189 -6.34228
RightFoot  -2.51986 -1.34164 17.0484
RightToes  -1.74624e-010 0 -3.6325e-017
Spine  7.74346 -0.298551 -10.3174
Spine1  24.9028 -1.33617 0.234272
HEad  -16.0997 28.033 -10.6369
LeftShoulder1  1.074 -1.32969 -15.4009
LeftArm  11.0707 2.53871 -55.9968
LeftForeArm  82.1973 -79.4703 -91.6531
LeftHand  -2.43159 -3.86635 30.1334
RightShoulder  0.644825 -0.124784 12.0724
RightArm  8.67703 -13.704 62.3735
RightForeArm  153.058 64.8268 157.285
RightHand  -1.38139 5.75202 -14.6252
LeftUpLeg  -10.4125 -2.71785 7.62983
LeftLeg  22.9325 9.33917 4.64688
LeftFoot  -12.5935 -0.0539266 -11.796
LeftToes  3.7286e-011 -1.5702e-010 -9.70233e-012
226
root  -18.2715 39.0785 10.7314 -177.343 36.4332 179.914
RightUpLeg  -14.1107 -10.6552 -9.18256
RightLeg  21.444 -13.5797 -6.01039
RightFoot  -1.97777 -1.45543 17.484
RightToes  -1.74624e-010 0 -3.6325e-017
Spine  7.85323 -0.769555 -10.3181
Spine1  23.9898 -2.26498 1.25159
HEad  -16.1822 28.2205 -11.137
LeftShoulder1  1.02365 -1.19316 -14.9339
LeftArm  10.0282 2.78351 -55.4036
LeftForeArm  83.4873 -79.4154 -93.7824
LeftHand  -2.44476 -3.85188 30.3332
RightShoulder  0.636479 -0.136383 11.8692
RightArm  8.70229 -14.3387 62.6596
RightForeArm  153.805 64.2847 157.879
RightHand  -1.29279 5.65211 -13.8321
LeftUpLeg  -10.72 -3.29741 8.03145
LeftLeg  21.4257 8.92003 4.17385
LeftFoot  -11.4738 0.0547555 -12.0084
LeftToes  3.7286e-011 -1.5702e-010 -9.70233e-012
227
root  -18.1524 39.1333 10.8792 -176.913 35.3484 179.934
RightUpLeg  -13.8829 -11.5124 -8.8173
RightLeg  20.5382 -14.0796 -5.96155
RightFoot  -1.89924 -1.44405 17.2036
RightToes  -1.74624e-010 0 -3.6325e-017
Spine  8.25013 -1.01269 -9.98874
Spine1  22.9374 -2.82927 2.06573
HEad  -16.0728 28.1988 -11.221
LeftShoulder1  0.977027 -1.03348 -14.6479
LeftArm  9.28296 2.87921 -54.7664
LeftForeArm  83.9782 -79.4005 -94.4237
LeftHand  -2.42519 -3.85837 30.0827
RightShoulder  0.622928 -0.19308 11.78
RightArm  8.25667 -14.7161 62.6009
RightForeArm  153.876 63.849 158.286
RightHand  -1.1829 5.41696 -12.9579
LeftUpLeg  -11.2092 -3.31668 8.42584
LeftLeg  20.6672 8.11702 3.70042
LeftFoot  -10.6823 0.13393 -12.1924
LeftToes  3.7286e-011 -1.5702e-010 -9.70233e-012
228
root  -18.0665 39.0897 11.0413 -176.881 35.0738 179.932
RightUpLeg  -13.9829 -12.0621 -8.46423
RightLeg  20.5572 -14.1505 -5.99407
RightFoot  -2.52163 -1.28693 16.3557
RightToes  -1.74624e-010 0 -3.6325e-017
Spine  8.77852 -0.943011 -9.07393
Spine1  22.2811 -2.69497 2.09806
HEad  -15.9889 27.9776 -11.2004
LeftShoulder1  0.949873 -0.929583 -14.5292
LeftArm  8.80246 2.69006 -54.3735
LeftForeArm  82.4316 -79.4165 -92.8968
LeftHand  -2.3979 -3.81433 29.8969
RightShoulder  0.61616 -0.235633 11.7929
RightArm  7.57583 -14.2505 62.1735
RightForeArm  153.077 63.8829 158.171
RightHand  -1.13533 5.17712 -12.7224
LeftUpLeg  -11.744 -3.18772 8.69311
LeftLeg  21.1321 7.88983 3.68448
LeftFoot  -10.5735 0.14425 -12.0526
LeftToes  3.7286e-011 -1.5702e-010 -9.70233e-012
229
root  -18.0621 38.9639 11.1942 -177.162 35.4302 179.97
RightUpLeg  -14.5669 -12.8722 -8.21739
RightLeg  21.6823 -12.8951 -5.78962
RightFoot  -3.29065 -1.13382 15.7046
RightToes  -1.74624e-010 0 -3.6325e-017
Spine  9.3245 -0.777429 -7.47397
Spine1  22.3476 -2.0824 1.33245
HEad  -16.2328 27.6583 -11.4724
LeftShoulder1  0.970239 -1.0214 -14.5459
LeftArm  8.35787 2.42273 -54.6036
LeftForeArm  77.712 -79.4095 -88.4883
LeftHand  -2.39663 -3.71708 30.1835
RightShoulder  0.619699 -0.222323 11.7226
RightArm  6.76615 -12.7975 61.5239
RightForeArm  151.967 64.5034 157.477
RightHand  -1.1906 5.13958 -13.3633
LeftUpLeg  -12.5037 -3.58197 8.84644
LeftLeg  23.077 8.56101 4.31836
LeftFoot  -10.868 0.115202 -12.17
LeftToes  3.7286e-011 -1.5702e-010 -9.70233e-012
230
root  -18.1456 38.7683 11.3204 -177.651 35.8564 179.839
RightUpLeg  -15.6961 -13.7683 -8.32896
RightLeg  23.9255 -11.5126 -5.75529
RightFoot  -3.76922 -1.04887 15.3744
RightToes  -1.74624e-010 0 -3.6325e-017
Spine  9.95981 -0.703192 -5.87702
Spine1  22.7447 -1.51335 0.444831
HEad  -16.6858 27.3281 -11.9825
LeftShoulder1  1.03028 -1.27743 -14.6657
LeftArm  8.00204 2.56287 -55.6383
LeftForeArm  71.2171 -79.3068 -82.1917
LeftHand  -2.4387 -3.64321 30.9212
RightShoulder  0.625728 -0.150751 11.4989
RightArm  5.86524 -10.8927 60.6737
RightForeArm  151.036 65.38 156.517
RightHand  -1.26371 5.19549 -14.0904
LeftUpLeg  -13.7809 -3.94817 8.79093
LeftLeg  26.3143 8.73296 5.00115
LeftFoot  -11.1774 0.0852355 -13.0096
LeftToes  3.7286e-011 -1.5702e-010 -9.70233e-012
231
root  -18.2846 38.5148 11.4077 -178.328 36.1124 179.379
RightUpLeg  -17.0875 -14.4707 -8.87655
RightLeg  26.8103 -10.8046 -6.10526
RightFoot  -4.45094 -0.939101 15.0075
RightToes  -1.74624e-010 0 -3.6325e-017
Spine  10.6723 -0.730639 -4.88493
Spine1  23.0276 -1.24767 -0.068289
HEad  -17.0022 27.14 -12.4405
LeftShoulder1  1.10117 -1.55689 -14.8983
LeftArm  8.10402 3.4476 -57.1694
LeftForeArm  66.6643 -79.1592 -77.4113
LeftHand  -2.50812 -3.64542 31.746
RightShoulder  0.627085 -0.0906815 11.2967
RightArm  4.97445 -9.21423 59.6555
RightForeArm  150.148 66.0254 155.744
RightHand  -1.25648 5.08728 -14.1475
LeftUpLeg  -15.338 -3.44837 8.49485
LeftLeg  29.8144 7.28397 4.82911
LeftFoot  -11.7075 0.0259888 -13.7337
LeftToes  3.7286e-011 -1.5702e-010 -9.70233e-012
232
root  -18.4665 38.2706 11.4358 -179.077 36.469 178.903
RightUpLeg  -18.0934 -15.155 -9.54751
RightLeg  29.1243 -9.6865 -6.02581
RightFoot  -5.50134 -0.792177 14.7227
RightToes  -1.74624e-010 0 -3.6325e-017
Spine  11.1451 -0.813253 -4.19001
Spine1  23.3889 -1.07265 -0.529708
HEad  -17.0065 27.3277 -12.7953
LeftShoulder1  1.17925 -1.82428 -15.3077
LeftArm  8.92122 4.86558 -58.7165
LeftForeArm  65.1361 -79.0903 -75.8305
LeftHand  -2.55915 -3.64772 32.3479
RightShoulder  0.620452 -0.111564 11.2731
RightArm  4.15151 -8.09376 58.7177
RightForeArm  149.099 66.3385 155.283
RightHand  -1.20285 4.88324 -13.8206
LeftUpLeg  -16.4312 -2.67218 8.23617
LeftLeg  32.5874 5.09333 3.85518
LeftFoot  -12.782 -0.0956861 -13.6596
LeftToes  3.7286e-011 -1.5702e-010 -9.70233e-012
233
root  -18.7182 38.1238 11.3717 -179.53 37.1445 179.022
RightUpLeg  -18.3012 -15.8473 -9.8817
RightLeg  29.8302 -7.93728 -5.13822
RightFoot  -5.76813 -0.762148 14.7688
RightToes  -1.74624e-010 0 -3.6325e-017
Spine  11.103 -0.965935 -3.11146
Spine1  24.0387 -0.804791 -1.2359
HEad  -16.6554 27.988 -13.1154
LeftShoulder1  1.26492 -2.06821 -15.9307
LeftArm  10.3231 6.25559 -60.1571
LeftForeArm  63.7815 -79.0268 -75.4127
LeftHand  -2.56032 -3.52753 32.772
RightShoulder  0.620161 -0.150781 11.4122
RightArm  3.36005 -7.78321 58.1256
RightForeArm  148.194 66.5771 154.912
RightHand  -1.21064 4.88286 -13.9053
LeftUpLeg  -16.7355 -2.74406 8.40395
LeftLeg  34.8847 3.59017 3.05398
LeftFoot  -13.9588 -0.226839 -13.5082
LeftToes  3.7286e-011 -1.5702e-010 -9.70233e-012
234
root  -19.0571 38.0857 11.2011 -179.515 37.7942 179.726
RightUpLeg  -17.9136 -16.3931 -9.95205
RightLeg  29.1539 -7.07475 -4.49006
RightFoot  -4.6397 -0.907726 14.8891
RightToes  -1.74624e-010 0 -3.6325e-017
Spine  10.7448 -1.20659 -1.97427
Spine1  24.5239 -0.762303 -1.59519
HEad  -15.956 28.9134 -13.3155
LeftShoulder1  1.33136 -2.18819 -16.6832
LeftArm  11.9306 7.21133 -61.5356
LeftForeArm  61.2527 -78.9075 -74.6283
LeftHand  -2.53927 -3.32873 33.214
RightShoulder  0.635149 -0.11246 11.675
RightArm  2.6175 -8.64081 57.9643
RightForeArm  147.98 66.8255 154.604
RightHand  -1.28468 5.11899 -14.4151
LeftUpLeg  -16.6478 -3.49675 8.68643
LeftLeg  37.396 3.20114 3.00074
LeftFoot  -14.2587 -0.265096 -13.7076
LeftToes  3.7286e-011 -1.5702e-010 -9.70233e-012
